<?xml version="1.0" encoding="UTF-8"?>
<!DOCTYPE svg PUBLIC "-//W3C//DTD SVG 1.1//EN" "http://www.w3.org/Graphics/SVG/1.1/DTD/svg11.dtd">
<svg xmlns="http://www.w3.org/2000/svg" version="1.1" width="500px" height="500px" style="shape-rendering:geometricPrecision; text-rendering:geometricPrecision; image-rendering:optimizeQuality; fill-rule:evenodd; clip-rule:evenodd" xmlns:xlink="http://www.w3.org/1999/xlink">
<g><path style="opacity:0.981" fill="#0a0a0a" d="M 393.5,247.5 C 392.189,251.683 392.189,256.016 393.5,260.5C 395.938,259.069 397.604,257.069 398.5,254.5C 398.833,253.5 399.5,252.833 400.5,252.5C 401.906,252.027 402.573,251.027 402.5,249.5C 411.062,235.043 418.562,220.043 425,204.5C 430.728,196.099 438.228,189.932 447.5,186C 456.835,185.834 465.835,187.5 474.5,191C 479.182,197.79 479.682,204.957 476,212.5C 471.447,222.884 464.28,230.884 454.5,236.5C 452.973,236.427 451.973,237.094 451.5,238.5C 449.973,238.427 448.973,239.094 448.5,240.5C 446.973,240.427 445.973,241.094 445.5,242.5C 443.219,242.077 441.552,242.744 440.5,244.5C 439.167,248.833 439.167,253.167 440.5,257.5C 440.229,259.38 440.896,260.713 442.5,261.5C 442.917,262.124 443.584,262.457 444.5,262.5C 445.713,262.253 446.38,261.586 446.5,260.5C 450.757,257.749 454.59,254.416 458,250.5C 462.038,244.4 466.538,238.733 471.5,233.5C 473.587,232.415 474.92,230.749 475.5,228.5C 477.054,227.086 478.388,225.419 479.5,223.5C 481.045,222.548 482.712,222.215 484.5,222.5C 487.727,222.676 490.727,223.343 493.5,224.5C 494.6,225.605 495.267,226.938 495.5,228.5C 495.34,230.153 494.674,231.486 493.5,232.5C 492.094,232.973 491.427,233.973 491.5,235.5C 490.66,237.853 489.326,239.853 487.5,241.5C 486.094,241.973 485.427,242.973 485.5,244.5C 478.378,256.122 469.045,265.622 457.5,273C 452.748,273.773 448.081,273.607 443.5,272.5C 441.562,270.837 439.228,270.171 436.5,270.5C 434.901,270.768 433.568,270.434 432.5,269.5C 430.351,268.264 428.018,267.264 425.5,266.5C 425.027,265.094 424.027,264.427 422.5,264.5C 420.292,263.106 418.792,261.106 418,258.5C 414.426,265.24 409.593,270.907 403.5,275.5C 402.167,275.5 401.5,276.167 401.5,277.5C 399.987,279.241 397.987,280.241 395.5,280.5C 389.092,279.576 382.758,278.409 376.5,277C 370.185,270.868 366.685,263.368 366,254.5C 358.174,262.832 349.34,269.832 339.5,275.5C 335.241,291.05 331.407,306.717 328,322.5C 325.553,330.061 322.553,337.394 319,344.5C 314.463,350.435 308.463,353.435 301,353.5C 293.566,352.68 286.399,350.847 279.5,348C 273.822,342.815 271.156,336.315 271.5,328.5C 272.411,315.93 276.578,304.597 284,294.5C 288.091,289.947 291.924,285.28 295.5,280.5C 297.833,280.167 299.167,278.833 299.5,276.5C 300.5,274.833 301.833,273.5 303.5,272.5C 306.764,270.906 309.431,268.573 311.5,265.5C 311.5,264.833 311.833,264.5 312.5,264.5C 315.515,260.804 317.182,256.47 317.5,251.5C 317.629,249.784 317.962,248.117 318.5,246.5C 319.463,245.637 319.463,244.97 318.5,244.5C 317.145,245.188 316.145,246.188 315.5,247.5C 307.695,256.979 298.695,264.979 288.5,271.5C 286.847,271.66 285.514,272.326 284.5,273.5C 277.805,272.662 271.138,271.495 264.5,270C 263.069,269.535 261.903,268.701 261,267.5C 258.333,270.5 255,272.167 251,272.5C 245.062,271.379 239.228,269.879 233.5,268C 230.482,264.96 229.148,261.294 229.5,257C 230.505,247.824 232.505,238.991 235.5,230.5C 237.198,226.571 238.532,222.404 239.5,218C 238.969,216.282 238.302,216.115 237.5,217.5C 237.5,217.833 237.5,218.167 237.5,218.5C 234.253,222.659 231.253,226.992 228.5,231.5C 225.46,234.914 223.46,238.914 222.5,243.5C 217.287,256.262 211.787,268.929 206,281.5C 205.196,282.804 204.029,283.471 202.5,283.5C 197.127,282.157 191.794,280.824 186.5,279.5C 186.027,278.094 185.027,277.427 183.5,277.5C 182.833,277.5 182.5,277.167 182.5,276.5C 182.446,274.368 181.446,273.035 179.5,272.5C 179.5,272.167 179.5,271.833 179.5,271.5C 179.598,269.447 178.931,267.78 177.5,266.5C 176.923,265.227 176.257,265.227 175.5,266.5C 172.541,271.784 168.875,276.451 164.5,280.5C 163.5,280.833 162.833,281.5 162.5,282.5C 160.285,285.444 157.285,287.11 153.5,287.5C 148.053,286.35 142.72,285.35 137.5,284.5C 135.858,283.197 134.191,281.864 132.5,280.5C 131.073,278.852 130.24,276.852 130,274.5C 129.667,267.833 129.333,261.167 129,254.5C 126.131,260.324 122.631,265.658 118.5,270.5C 117.094,270.973 116.427,271.973 116.5,273.5C 113.833,275.5 111.5,277.833 109.5,280.5C 108.167,280.5 107.5,281.167 107.5,282.5C 99.4778,283.667 91.4778,283.167 83.5,281C 77.039,277.924 73.7057,272.757 73.5,265.5C 73.8076,263.076 73.4742,260.743 72.5,258.5C 71.8933,258.624 71.56,258.957 71.5,259.5C 68.5211,263.146 65.1877,266.479 61.5,269.5C 60.1659,287.512 58.6659,305.512 57,323.5C 56.5637,335.828 52.0637,346.328 43.5,355C 41.0838,356.063 38.5838,356.896 36,357.5C 29.4973,355.966 22.9973,354.633 16.5,353.5C 16.0269,352.094 15.0269,351.427 13.5,351.5C 5.62972,344.769 1.96306,336.102 2.5,325.5C 2.93791,320.251 3.93791,315.251 5.5,310.5C 7.07394,308.898 7.74061,306.898 7.5,304.5C 8.32567,301.515 9.659,298.849 11.5,296.5C 12.9063,296.027 13.573,295.027 13.5,293.5C 18.3775,285.614 24.0442,278.281 30.5,271.5C 31.8001,269.777 32.4668,267.61 32.5,265C 33.2282,257.516 33.5615,250.016 33.5,242.5C 34.7765,233.026 35.4431,223.359 35.5,213.5C 35.2746,211.284 36.1079,209.617 38,208.5C 44.9811,209.582 51.8144,210.916 58.5,212.5C 59.0182,217.986 59.6849,223.319 60.5,228.5C 60.3341,233.511 60.5007,238.511 61,243.5C 66.8226,236.521 72.156,229.188 77,221.5C 78.8479,213.774 80.8479,206.108 83,198.5C 85.0527,194.708 88.2194,193.542 92.5,195C 95.755,196.147 99.0884,196.98 102.5,197.5C 106.561,196.318 110.561,196.318 114.5,197.5C 114.66,199.153 115.326,200.486 116.5,201.5C 116.352,210.571 114.685,219.238 111.5,227.5C 109.498,231.833 108.498,236.5 108.5,241.5C 108.309,245.262 107.642,248.929 106.5,252.5C 105.224,253.386 105.224,254.386 106.5,255.5C 107.952,254.06 108.952,252.394 109.5,250.5C 115.17,241.159 120.837,231.825 126.5,222.5C 127.906,222.027 128.573,221.027 128.5,219.5C 128.427,217.973 129.094,216.973 130.5,216.5C 131.906,216.027 132.573,215.027 132.5,213.5C 134.076,210.074 135.909,206.74 138,203.5C 141.933,201.522 146.1,201.022 150.5,202C 154.233,202.066 157.733,202.899 161,204.5C 161.667,208.5 161.667,212.5 161,216.5C 158.618,231.836 156.618,247.169 155,262.5C 160.092,254.927 164.925,247.26 169.5,239.5C 170.906,239.027 171.573,238.027 171.5,236.5C 173.104,235.713 173.771,234.38 173.5,232.5C 173.328,231.508 173.662,230.842 174.5,230.5C 175.906,230.027 176.573,229.027 176.5,227.5C 176.328,226.508 176.662,225.842 177.5,225.5C 179.922,220.165 181.588,214.498 182.5,208.5C 183.988,203.533 185.988,198.866 188.5,194.5C 190.545,192.016 193.212,191.016 196.5,191.5C 200.853,191.765 205.187,192.265 209.5,193C 213.027,194.873 214.693,197.873 214.5,202C 213.446,207.823 212.446,213.656 211.5,219.5C 211.52,220.726 211.853,221.726 212.5,222.5C 213.906,222.027 214.573,221.027 214.5,219.5C 216.95,217.371 218.617,214.704 219.5,211.5C 222.453,207.375 225.619,203.375 229,199.5C 231.921,195.908 235.421,193.075 239.5,191C 241.5,190.333 243.5,190.333 245.5,191C 250.623,191.816 255.457,193.316 260,195.5C 260.667,200.167 260.667,204.833 260,209.5C 256.487,223.878 253.154,238.211 250,252.5C 250.852,251.429 251.685,250.429 252.5,249.5C 254.048,249.179 254.715,248.179 254.5,246.5C 254.932,245.29 255.599,244.29 256.5,243.5C 258.048,243.179 258.715,242.179 258.5,240.5C 260.048,240.179 260.715,239.179 260.5,237.5C 262.61,235.895 264.61,234.062 266.5,232C 265.748,231.329 265.414,230.496 265.5,229.5C 265.992,227.181 266.992,225.181 268.5,223.5C 269.906,223.027 270.573,222.027 270.5,220.5C 270.328,219.508 270.662,218.842 271.5,218.5C 273.924,215.992 275.59,212.992 276.5,209.5C 280.39,199.266 287.724,193.599 298.5,192.5C 312.699,191.574 324.199,196.574 333,207.5C 339.86,206.593 346.693,207.093 353.5,209C 354.617,212.073 354.784,215.24 354,218.5C 352.452,225.372 350.618,232.039 348.5,238.5C 347.076,240.515 346.41,242.848 346.5,245.5C 346.369,246.239 346.536,246.906 347,247.5C 354.539,240.631 360.539,232.631 365,223.5C 366.597,202.339 371.43,182.006 379.5,162.5C 381.048,162.179 381.715,161.179 381.5,159.5C 382.248,157.668 383.248,156.001 384.5,154.5C 386.5,154.5 387.5,153.5 387.5,151.5C 388.5,149.833 389.833,148.5 391.5,147.5C 393.027,147.573 394.027,146.906 394.5,145.5C 394.611,144.883 394.944,144.383 395.5,144C 403.669,141.696 412.002,141.362 420.5,143C 427.244,145.136 430.244,149.802 429.5,157C 426.905,175.45 420.739,192.617 411,208.5C 405.277,215.891 399.944,223.557 395,231.5C 394.735,236.882 394.235,242.215 393.5,247.5 Z M 402.5,188.5 C 401.566,187.432 401.232,186.099 401.5,184.5C 403.116,174.152 406.616,164.485 412,155.5C 412.667,157.833 412.667,160.167 412,162.5C 408.925,171.229 405.758,179.895 402.5,188.5 Z M 458.5,200.5 C 459.434,201.568 459.768,202.901 459.5,204.5C 457.849,211.109 454.182,216.442 448.5,220.5C 450.509,213.161 453.843,206.495 458.5,200.5 Z M 308.5,204.5 C 309.609,204.557 310.609,204.89 311.5,205.5C 311.833,206.5 312.5,207.167 313.5,207.5C 316.016,210.534 318.016,213.868 319.5,217.5C 316.5,220.833 313.5,224.167 310.5,227.5C 307.833,229.5 305.5,231.833 303.5,234.5C 301.596,234.738 300.262,235.738 299.5,237.5C 297.5,238.833 295.833,240.5 294.5,242.5C 292.806,243.527 291.473,244.861 290.5,246.5C 294.702,234.422 299.202,222.422 304,210.5C 305.332,208.34 306.832,206.34 308.5,204.5 Z M 304.5,297.5 C 305.338,297.842 305.672,298.508 305.5,299.5C 303.74,303.547 302.74,307.88 302.5,312.5C 300.41,320.074 298.243,327.741 296,335.5C 294.899,337.394 293.566,338.061 292,337.5C 290.045,330.085 290.378,322.752 293,315.5C 296.268,309.08 300.101,303.08 304.5,297.5 Z M 29.5,329.5 C 28.7709,332.541 27.6043,335.541 26,338.5C 25.6174,337.944 25.1174,337.611 24.5,337.5C 24.3404,335.847 23.6737,334.514 22.5,333.5C 20.4637,321.521 22.9637,310.521 30,300.5C 30.9435,301.263 31.4435,302.263 31.5,303.5C 30.3748,312.127 29.7082,320.794 29.5,329.5 Z"/></g>
<g><path style="opacity:0.306" fill="#787878" d="M 394.5,145.5 C 394.027,146.906 393.027,147.573 391.5,147.5C 391.973,146.094 392.973,145.427 394.5,145.5 Z"/></g>
<g><path style="opacity:0.22" fill="#7d7d7d" d="M 387.5,151.5 C 387.5,153.5 386.5,154.5 384.5,154.5C 385.167,153.167 386.167,152.167 387.5,151.5 Z"/></g>
<g><path style="opacity:0.251" fill="#8c8c8c" d="M 381.5,159.5 C 381.715,161.179 381.048,162.179 379.5,162.5C 379.932,161.29 380.599,160.29 381.5,159.5 Z"/></g>
<g><path style="opacity:0.369" fill="#8c8c8c" d="M 38.5,173.5 C 38.0269,174.906 37.0269,175.573 35.5,175.5C 35.9731,174.094 36.9731,173.427 38.5,173.5 Z"/></g>
<g><path style="opacity:0.963" fill="#161616" d="M 38.5,173.5 C 45.343,173.974 52.0097,175.307 58.5,177.5C 59.6065,184.891 59.2732,192.225 57.5,199.5C 51.1263,199.799 44.793,198.966 38.5,197C 38,196.5 37.5,196 37,195.5C 35.5796,188.95 35.0796,182.284 35.5,175.5C 37.0269,175.573 38.0269,174.906 38.5,173.5 Z"/></g>
<g><path style="opacity:0.243" fill="#a8a8a8" d="M 401.5,184.5 C 401.232,186.099 401.566,187.432 402.5,188.5C 402.217,189.289 401.717,189.956 401,190.5C 400.211,188.288 400.378,186.288 401.5,184.5 Z"/></g>
<g><path style="opacity:0.329" fill="#606060" d="M 196.5,191.5 C 193.212,191.016 190.545,192.016 188.5,194.5C 188.511,192.983 189.177,191.816 190.5,191C 192.712,190.211 194.712,190.378 196.5,191.5 Z"/></g>
<g><path style="opacity:0.116" fill="#b9b9b9" d="M 114.5,197.5 C 116.104,198.287 116.771,199.62 116.5,201.5C 115.326,200.486 114.66,199.153 114.5,197.5 Z"/></g>
<g><path style="opacity:0.05" fill="#f2f2f2" d="M 458.5,200.5 C 458.56,199.957 458.893,199.624 459.5,199.5C 460.788,201.299 460.788,202.965 459.5,204.5C 459.768,202.901 459.434,201.568 458.5,200.5 Z"/></g>
<g><path style="opacity:0.02" fill="#b2b2b2" d="M 308.5,204.5 C 309.947,203.115 310.947,203.448 311.5,205.5C 310.609,204.89 309.609,204.557 308.5,204.5 Z"/></g>
<g><path style="opacity:0.22" fill="#b8b8b8" d="M 311.5,205.5 C 312.833,205.5 313.5,206.167 313.5,207.5C 312.5,207.167 311.833,206.5 311.5,205.5 Z"/></g>
<g><path style="opacity:0.071" fill="#cccccc" d="M 219.5,211.5 C 218.617,214.704 216.95,217.371 214.5,219.5C 215.383,216.296 217.05,213.629 219.5,211.5 Z"/></g>
<g><path style="opacity:0.192" fill="#d0d0d0" d="M 132.5,213.5 C 132.573,215.027 131.906,216.027 130.5,216.5C 130.427,214.973 131.094,213.973 132.5,213.5 Z"/></g>
<g><path style="opacity:0.196" fill="#868686" d="M 276.5,209.5 C 275.59,212.992 273.924,215.992 271.5,218.5C 272.41,215.008 274.076,212.008 276.5,209.5 Z"/></g>
<g><path style="opacity:0.722" fill="#585858" d="M 237.5,217.5 C 238.302,216.115 238.969,216.282 239.5,218C 238.532,222.404 237.198,226.571 235.5,230.5C 236.167,226.5 236.833,222.5 237.5,218.5C 238.833,218.167 238.833,217.833 237.5,217.5 Z"/></g>
<g><path style="opacity:0.106" fill="#b3b3b3" d="M 182.5,208.5 C 181.588,214.498 179.922,220.165 177.5,225.5C 178.411,219.507 180.077,213.84 182.5,208.5 Z"/></g>
<g><path style="opacity:0.353" fill="#717171" d="M 319.5,217.5 C 320.525,217.897 320.692,218.563 320,219.5C 317.234,222.777 314.067,225.443 310.5,227.5C 313.5,224.167 316.5,220.833 319.5,217.5 Z"/></g>
<g><path style="opacity:0.114" fill="#c8c8c8" d="M 128.5,219.5 C 128.573,221.027 127.906,222.027 126.5,222.5C 126.427,220.973 127.094,219.973 128.5,219.5 Z"/></g>
<g><path style="opacity:0.133" fill="#c1c1c1" d="M 214.5,219.5 C 214.573,221.027 213.906,222.027 212.5,222.5C 212.427,220.973 213.094,219.973 214.5,219.5 Z"/></g>
<g><path style="opacity:0.412" fill="#787878" d="M 58.5,212.5 C 59.2216,212.918 59.7216,213.584 60,214.5C 60.4992,219.155 60.6658,223.821 60.5,228.5C 59.6849,223.319 59.0182,217.986 58.5,212.5 Z"/></g>
<g><path style="opacity:0.18" fill="#9e9e9e" d="M 484.5,222.5 C 482.712,222.215 481.045,222.548 479.5,223.5C 478.388,225.419 477.054,227.086 475.5,228.5C 476.308,222.698 479.308,220.698 484.5,222.5 Z"/></g>
<g><path style="opacity:0.102" fill="#979797" d="M 270.5,220.5 C 270.573,222.027 269.906,223.027 268.5,223.5C 268.427,221.973 269.094,220.973 270.5,220.5 Z"/></g>
<g><path style="opacity:0.007" fill="#e9e9e9" d="M 493.5,224.5 C 496.309,224.958 496.976,226.291 495.5,228.5C 495.267,226.938 494.6,225.605 493.5,224.5 Z"/></g>
<g><path style="opacity:0.063" fill="#c1c1c1" d="M 176.5,227.5 C 176.573,229.027 175.906,230.027 174.5,230.5C 174.427,228.973 175.094,227.973 176.5,227.5 Z"/></g>
<g><path style="opacity:0.36" fill="#333333" d="M 35.5,213.5 C 35.4431,223.359 34.7765,233.026 33.5,242.5C 33.3867,232.63 34.0534,222.963 35.5,213.5 Z"/></g>
<g><path style="opacity:0.329" fill="#7d7d7d" d="M 475.5,228.5 C 474.92,230.749 473.587,232.415 471.5,233.5C 472.08,231.251 473.413,229.585 475.5,228.5 Z"/></g>
<g><path style="opacity:0.165" fill="#b2b2b2" d="M 111.5,227.5 C 110.99,232.391 109.99,237.058 108.5,241.5C 108.498,236.5 109.498,231.833 111.5,227.5 Z"/></g>
<g><path style="opacity:0.392" fill="#7d7d7d" d="M 265.5,229.5 C 265.414,230.496 265.748,231.329 266.5,232C 264.61,234.062 262.61,235.895 260.5,237.5C 262.181,234.797 263.847,232.131 265.5,229.5 Z"/></g>
<g><path style="opacity:0.008" fill="#cccccc" d="M 493.5,232.5 C 493.573,234.027 492.906,235.027 491.5,235.5C 491.427,233.973 492.094,232.973 493.5,232.5 Z"/></g>
<g><path style="opacity:0.286" fill="#979797" d="M 173.5,232.5 C 173.771,234.38 173.104,235.713 171.5,236.5C 171.66,234.847 172.326,233.514 173.5,232.5 Z"/></g>
<g><path style="opacity:0.18" fill="#7f7f7f" d="M 303.5,234.5 C 302.738,236.262 301.404,237.262 299.5,237.5C 300.262,235.738 301.596,234.738 303.5,234.5 Z"/></g>
<g><path style="opacity:0.141" fill="#a8a8a8" d="M 171.5,236.5 C 171.573,238.027 170.906,239.027 169.5,239.5C 169.427,237.973 170.094,236.973 171.5,236.5 Z"/></g>
<g><path style="opacity:0.106" fill="#898989" d="M 228.5,231.5 C 227.008,235.818 225.008,239.818 222.5,243.5C 223.46,238.914 225.46,234.914 228.5,231.5 Z"/></g>
<g><path style="opacity:0.008" fill="#dedede" d="M 454.5,236.5 C 454.027,237.906 453.027,238.573 451.5,238.5C 451.973,237.094 452.973,236.427 454.5,236.5 Z"/></g>
<g><path style="opacity:0.369" fill="#898989" d="M 260.5,237.5 C 260.715,239.179 260.048,240.179 258.5,240.5C 258.932,239.29 259.599,238.29 260.5,237.5 Z"/></g>
<g><path style="opacity:0.008" fill="#cecece" d="M 451.5,238.5 C 451.027,239.906 450.027,240.573 448.5,240.5C 448.973,239.094 449.973,238.427 451.5,238.5 Z"/></g>
<g><path style="opacity:0.227" fill="#767676" d="M 299.5,237.5 C 298.833,240.167 297.167,241.833 294.5,242.5C 295.833,240.5 297.5,238.833 299.5,237.5 Z"/></g>
<g><path style="opacity:0.012" fill="#dadada" d="M 448.5,240.5 C 448.027,241.906 447.027,242.573 445.5,242.5C 445.973,241.094 446.973,240.427 448.5,240.5 Z"/></g>
<g><path style="opacity:0.4" fill="#898989" d="M 258.5,240.5 C 258.715,242.179 258.048,243.179 256.5,243.5C 256.932,242.29 257.599,241.29 258.5,240.5 Z"/></g>
<g><path style="opacity:0.353" fill="#6e6e6e" d="M 348.5,238.5 C 348.59,241.152 347.924,243.485 346.5,245.5C 346.41,242.848 347.076,240.515 348.5,238.5 Z"/></g>
<g><path style="opacity:0.114" fill="#dfdfdf" d="M 445.5,242.5 C 443.972,243.309 442.306,243.976 440.5,244.5C 441.552,242.744 443.219,242.077 445.5,242.5 Z"/></g>
<g><path style="opacity:0.02" fill="#c5c5c5" d="M 487.5,241.5 C 487.573,243.027 486.906,244.027 485.5,244.5C 485.427,242.973 486.094,241.973 487.5,241.5 Z"/></g>
<g><path style="opacity:0.012" fill="#dbdbdb" d="M 318.5,246.5 C 317.609,247.11 316.609,247.443 315.5,247.5C 316.145,246.188 317.145,245.188 318.5,244.5C 319.463,244.97 319.463,245.637 318.5,246.5 Z"/></g>
<g><path style="opacity:0.38" fill="#838383" d="M 254.5,246.5 C 254.715,248.179 254.048,249.179 252.5,249.5C 252.932,248.29 253.599,247.29 254.5,246.5 Z"/></g>
<g><path style="opacity:0.306" fill="#9b9b9b" d="M 402.5,249.5 C 402.573,251.027 401.906,252.027 400.5,252.5C 400.427,250.973 401.094,249.973 402.5,249.5 Z"/></g>
<g><path style="opacity:0.537" fill="#838383" d="M 109.5,250.5 C 108.952,252.394 107.952,254.06 106.5,255.5C 105.224,254.386 105.224,253.386 106.5,252.5C 107.5,251.833 108.5,251.167 109.5,250.5 Z"/></g>
<g><path style="opacity:0.055" fill="#828282" d="M 317.5,251.5 C 317.182,256.47 315.515,260.804 312.5,264.5C 313.995,260.002 315.662,255.668 317.5,251.5 Z"/></g>
<g><path style="opacity:0.133" fill="#858585" d="M 393.5,247.5 C 393.335,251.182 393.501,254.848 394,258.5C 395.371,256.959 396.871,255.625 398.5,254.5C 397.604,257.069 395.938,259.069 393.5,260.5C 392.189,256.016 392.189,251.683 393.5,247.5 Z"/></g>
<g><path style="opacity:0.114" fill="#a7a7a7" d="M 440.5,257.5 C 441.674,258.514 442.34,259.847 442.5,261.5C 440.896,260.713 440.229,259.38 440.5,257.5 Z"/></g>
<g><path style="opacity:0.422" fill="#555555" d="M 71.5,259.5 C 71.56,258.957 71.8933,258.624 72.5,258.5C 73.4742,260.743 73.8076,263.076 73.5,265.5C 72.8333,263.5 72.1667,261.5 71.5,259.5 Z"/></g>
<g><path style="opacity:0.275" fill="#979797" d="M 446.5,260.5 C 446.38,261.586 445.713,262.253 444.5,262.5C 443.584,262.457 442.917,262.124 442.5,261.5C 443.959,261.567 445.292,261.234 446.5,260.5 Z"/></g>
<g><path style="opacity:0.384" fill="#3f3f3f" d="M 33.5,242.5 C 33.5615,250.016 33.2282,257.516 32.5,265C 32.4668,267.61 31.8001,269.777 30.5,271.5C 31.5471,261.74 32.5471,252.074 33.5,242.5 Z"/></g>
<g><path style="opacity:0.216" fill="#949494" d="M 422.5,264.5 C 424.027,264.427 425.027,265.094 425.5,266.5C 423.973,266.573 422.973,265.906 422.5,264.5 Z"/></g>
<g><path style="opacity:0.145" fill="#888888" d="M 425.5,266.5 C 428.018,267.264 430.351,268.264 432.5,269.5C 429.509,269.834 427.176,268.834 425.5,266.5 Z"/></g>
<g><path style="opacity:0.227" fill="#888888" d="M 311.5,265.5 C 309.431,268.573 306.764,270.906 303.5,272.5C 305.569,269.427 308.236,267.094 311.5,265.5 Z"/></g>
<g><path style="opacity:0.145" fill="#acacac" d="M 177.5,266.5 C 178.931,267.78 179.598,269.447 179.5,271.5C 178.069,270.22 177.402,268.553 177.5,266.5 Z"/></g>
<g><path style="opacity:0.498" fill="#585858" d="M 436.5,270.5 C 439.228,270.171 441.562,270.837 443.5,272.5C 440.933,272.279 438.599,271.612 436.5,270.5 Z"/></g>
<g><path style="opacity:0.012" fill="#c8c8c8" d="M 118.5,270.5 C 118.573,272.027 117.906,273.027 116.5,273.5C 116.427,271.973 117.094,270.973 118.5,270.5 Z"/></g>
<g><path style="opacity:0.396" fill="#a3a3a3" d="M 179.5,272.5 C 181.446,273.035 182.446,274.368 182.5,276.5C 181.026,275.564 180.026,274.23 179.5,272.5 Z"/></g>
<g><path style="opacity:0.098" fill="#a3a3a3" d="M 288.5,271.5 C 287.713,273.104 286.38,273.771 284.5,273.5C 285.514,272.326 286.847,271.66 288.5,271.5 Z"/></g>
<g><path style="opacity:0.004" fill="#dcdcdc" d="M 403.5,275.5 C 403.167,276.5 402.5,277.167 401.5,277.5C 401.5,276.167 402.167,275.5 403.5,275.5 Z"/></g>
<g><path style="opacity:0.016" fill="#d0d0d0" d="M 116.5,273.5 C 115.167,276.833 112.833,279.167 109.5,280.5C 111.5,277.833 113.833,275.5 116.5,273.5 Z"/></g>
<g><path style="opacity:0.098" fill="#aaaaaa" d="M 183.5,277.5 C 185.027,277.427 186.027,278.094 186.5,279.5C 184.973,279.573 183.973,278.906 183.5,277.5 Z"/></g>
<g><path style="opacity:0.224" fill="#8d8d8d" d="M 299.5,276.5 C 299.167,278.833 297.833,280.167 295.5,280.5C 296.5,278.833 297.833,277.5 299.5,276.5 Z"/></g>
<g><path style="opacity:0.043" fill="#cecece" d="M 109.5,280.5 C 109.167,281.5 108.5,282.167 107.5,282.5C 107.5,281.167 108.167,280.5 109.5,280.5 Z"/></g>
<g><path style="opacity:0.016" fill="#cfcfcf" d="M 132.5,280.5 C 134.191,281.864 135.858,283.197 137.5,284.5C 134.633,284.631 132.967,283.297 132.5,280.5 Z"/></g>
<g><path style="opacity:0.004" fill="#dfdfdf" d="M 164.5,280.5 C 164.5,281.833 163.833,282.5 162.5,282.5C 162.833,281.5 163.5,280.833 164.5,280.5 Z"/></g>
<g><path style="opacity:0.255" fill="#b9b9b9" d="M 13.5,293.5 C 13.573,295.027 12.9063,296.027 11.5,296.5C 11.427,294.973 12.0937,293.973 13.5,293.5 Z"/></g>
<g><path style="opacity:0.141" fill="#959595" d="M 304.5,297.5 C 305.302,296.115 305.969,296.282 306.5,298C 306.43,298.765 306.097,299.265 305.5,299.5C 305.672,298.508 305.338,297.842 304.5,297.5 Z"/></g>
<g><path style="opacity:0.12" fill="#b4b4b4" d="M 305.5,299.5 C 305.26,304.12 304.26,308.453 302.5,312.5C 302.74,307.88 303.74,303.547 305.5,299.5 Z"/></g>
<g><path style="opacity:0.039" fill="#c2c2c2" d="M 7.5,304.5 C 7.74061,306.898 7.07394,308.898 5.5,310.5C 5.59495,308.214 6.26162,306.214 7.5,304.5 Z"/></g>
<g><path style="opacity:0.173" fill="#a5a5a5" d="M 22.5,333.5 C 23.6737,334.514 24.3404,335.847 24.5,337.5C 22.8958,336.713 22.2291,335.38 22.5,333.5 Z"/></g>
<g><path style="opacity:0.129" fill="#777777" d="M 29.5,329.5 C 30.1166,333.529 28.9499,336.863 26,339.5C 24.9701,339.164 24.4701,338.497 24.5,337.5C 25.1174,337.611 25.6174,337.944 26,338.5C 27.6043,335.541 28.7709,332.541 29.5,329.5 Z"/></g>
<g><path style="opacity:0.118" fill="#939393" d="M 13.5,351.5 C 15.0269,351.427 16.0269,352.094 16.5,353.5C 14.9731,353.573 13.9731,352.906 13.5,351.5 Z"/></g>
</svg>
