<svg xmlns="http://www.w3.org/2000/svg" viewBox="0 0 756 309.792" style="opacity: 1;">
  <g data-name="Gruppe 16" style="isolation:isolate" fill="#FF5F00">
    <path data-name="Pfad 3" d="M520.032 53.48 478.7 117.749h-.752c-3-3.825-21.79-28.309-21.79-28.309a222.76 222.76 0 0 1-75.9 38.255s33.815 44.377 33.815 45.146v1.531c-5.261 7.651-72.9 109.41-72.9 110.175h-.752V137.641a502.275 502.275 0 0 1-67.634 4.59H251.75v58.15s-.751.765-.751 0a48.6 48.6 0 0 0-12.024-19.893c-28.557-30.6-126.251-42.081-140.529-58.148-3.006-3.06-3.758-7.651-3.758-11.477 0-13.007 8.266-21.423 29.308-22.188 15.781-.765 28.557 6.886 31.563 37.49h87.173a60.043 60.043 0 0 0-1.5-11.477c-4.509-45.142-27.054-72.685-111.972-72.685-51.86.001-87.928 9.182-108.218 29.838C7.515 85.615.751 103.212 2.254 122.341a63.7 63.7 0 0 0 15.03 44.376c12.775 13.772 39.829 22.953 66.883 31.37 33.817 9.946 68.386 18.363 75.15 26.779a23.416 23.416 0 0 1 3.757 12.242c0 19.893-19.538 26.013-39.077 26.013a33.607 33.607 0 0 1-26.3-9.946 46.674 46.674 0 0 1-9.018-31.37H0c.751 27.544 4.509 48.967 21.042 63.5s48.1 24.483 101.452 24.483c77.4 0 115.73-21.423 128.505-55.088h.751v48.2h172.09l48.85-71.155h.748c3.761 6.121 46.594 71.155 46.594 71.155H703.4V125.4H756V53.48c0 .077-235.968.077-235.968 0Zm95.44 229.532c-.752 0-77.4-108.645-77.4-108.645v-.765c3-3.826 33.066-47.437 33.818-48.2h44.337v156.08Z"/>
    <path data-name="Pfad 4" d="M439.624 83.4c-40.583 28.306-96.943 44.373-169.083 43.608a154.317 154.317 0 0 1-18.787-.765v-71.92c65.38 4.591 109.718-6.886 136.771-27.544A72.129 72.129 0 0 0 411.818 0h91.681a169.667 169.667 0 0 1-63.875 83.4Z"/>
  </g>
</svg>
